<?xml version="1.0" encoding="UTF-8"?>
<!DOCTYPE svg PUBLIC "-//W3C//DTD SVG 1.1//EN" "http://www.w3.org/Graphics/SVG/1.1/DTD/svg11.dtd">
<svg version="1.1" xmlns="http://www.w3.org/2000/svg" xmlns:xlink="http://www.w3.org/1999/xlink" x="0" y="0" width="84" height="84" viewBox="0, 0, 84, 84">
  <g id="Layer_1" transform="translate(-8.5, -10.5)">
    <path d="M91,94.5 L10,94.5 C9.171,94.5 8.5,93.828 8.5,93 L8.5,12 C8.5,11.172 9.171,10.5 10,10.5 C10.829,10.5 11.5,11.172 11.5,12 L11.5,13.5 L14,13.5 C14.829,13.5 15.5,14.172 15.5,15 C15.5,15.828 14.829,16.5 14,16.5 L11.5,16.5 L11.5,26.5 L14,26.5 C14.829,26.5 15.5,27.172 15.5,28 C15.5,28.828 14.829,29.5 14,29.5 L11.5,29.5 L11.5,39.5 L14,39.5 C14.829,39.5 15.5,40.172 15.5,41 C15.5,41.828 14.829,42.5 14,42.5 L11.5,42.5 L11.5,52.5 L14,52.5 C14.829,52.5 15.5,53.172 15.5,54 C15.5,54.828 14.829,55.5 14,55.5 L11.5,55.5 L11.5,65.5 L14,65.5 C14.829,65.5 15.5,66.172 15.5,67 C15.5,67.828 14.829,68.5 14,68.5 L11.5,68.5 L11.5,78.5 L14,78.5 C14.829,78.5 15.5,79.172 15.5,80 C15.5,80.828 14.829,81.5 14,81.5 L11.5,81.5 L11.5,91.5 L91,91.5 C91.828,91.5 92.5,92.172 92.5,93 C92.5,93.828 91.828,94.5 91,94.5 z M76.5,40.5 C73.187,40.5 70.5,37.813 70.5,34.5 C70.5,31.187 73.187,28.5 76.5,28.5 C79.814,28.5 82.5,31.187 82.5,34.5 C82.5,37.813 79.814,40.5 76.5,40.5 z M76.5,31.5 C74.844,31.5 73.5,32.843 73.5,34.5 C73.5,36.156 74.844,37.5 76.5,37.5 C78.156,37.5 79.5,36.156 79.5,34.5 C79.5,32.843 78.156,31.5 76.5,31.5 z M65.5,70.5 C62.187,70.5 59.5,67.813 59.5,64.5 C59.5,61.187 62.187,58.5 65.5,58.5 C68.814,58.5 71.5,61.187 71.5,64.5 C71.5,67.813 68.814,70.5 65.5,70.5 z M65.5,61.5 C63.844,61.5 62.5,62.843 62.5,64.5 C62.5,66.156 63.844,67.5 65.5,67.5 C67.156,67.5 68.5,66.156 68.5,64.5 C68.5,62.843 67.156,61.5 65.5,61.5 z M42.5,57.5 C39.187,57.5 36.5,54.813 36.5,51.5 C36.5,48.187 39.187,45.5 42.5,45.5 C45.813,45.5 48.5,48.187 48.5,51.5 C48.5,54.813 45.813,57.5 42.5,57.5 z M42.5,48.5 C40.843,48.5 39.5,49.843 39.5,51.5 C39.5,53.156 40.843,54.5 42.5,54.5 C44.157,54.5 45.5,53.156 45.5,51.5 C45.5,49.843 44.157,48.5 42.5,48.5 z M26.5,82.5 C23.187,82.5 20.5,79.813 20.5,76.5 C20.5,73.187 23.187,70.5 26.5,70.5 C29.813,70.5 32.5,73.187 32.5,76.5 C32.5,79.813 29.813,82.5 26.5,82.5 z M26.5,73.5 C24.843,73.5 23.5,74.843 23.5,76.5 C23.5,78.156 24.843,79.5 26.5,79.5 C28.157,79.5 29.5,78.156 29.5,76.5 C29.5,74.843 28.157,73.5 26.5,73.5 z" fill="#000000"/>
  </g>
</svg>
