<svg height="512" viewBox="0 0 58 58" width="512" xmlns="http://www.w3.org/2000/svg"><g id="Page-1" fill="none" fill-rule="evenodd"><g id="040---Journal" fill-rule="nonzero" transform="translate(0 -1)"><path id="Shape" d="m52 28.86v24.14c0 2.209139-1.790861 4-4 4h-34v-54h30.44z" fill="#f0c419"/><path id="Shape" d="m4 12v45c.0032948 1.1032019.89679813 1.9967052 2 2h6c1.1032019-.0032948 1.9967052-.8967981 2-2v-54c-.0032948-1.10320187-.8967981-1.9967052-2-2h-6c-1.10320187.0032948-1.9967052.89679813-2 2z" fill="#f3d55b"/><path id="Shape" d="m29.375 29.779-2.75-2.2c-.3653328-.2925003-.8846672-.2925003-1.25 0l-2.75 2.2c-.2999023.2401148-.7108485.2871903-1.0572813.1211157-.3464329-.1660745-.5670949-.5159333-.5677187-.9001157v-26h10v26c-.0006238.3841824-.2212858.7340412-.5677187.9001157-.3464328.1660746-.757379.1189991-1.0572813-.1211157z" fill="#e57e25"/><g fill="#bdc3c7"><rect id="Rectangle-path" height="4" rx="2" width="9" y="8"/><rect id="Rectangle-path" height="4" rx="2" width="9" y="21"/><rect id="Rectangle-path" height="4" rx="2" width="9" y="35"/><rect id="Rectangle-path" height="4" rx="2" width="9" y="48"/></g><path id="Shape" d="m32.575 47.952 3.812 10.542c.0554915.1537288.1826131.2706331.3404426.3130797.1578295.0424465.3264415.0050767.4515574-.1000797l8.572-7.224c.1565769-.1317483.2689665-.3083605.322-.506l10.012-37.368-13.523-3.623-10.012 37.367c-.0531236.1975245-.044398.4065891.025.599z" fill="#67b9cc"/><path id="Shape" d="m46.6177082 1.96829263h8c1.6568542 0 3 1.34314575 3 3v6.99999997h-14v-6.99999997c0-1.65685425 1.3431457-3 3-3z" fill="#ff5364" transform="matrix(.966 .259 -.259 .966 3.528 -12.863)"/><path id="Shape" d="m47.462 8.158c-.087815-.00038136-.1752101-.01214608-.26-.035-.5305304-.14522129-.8441771-.69164572-.702-1.223l.259-.965c.2852035-1.06343063 1.3762805-1.6963536 2.441-1.416l.966.258c.533507.14304177.8500417.69149294.707 1.22499999-.1430418.53350705-.6914929.85004173-1.225.70700001l-.965-.259-.26.966c-.1163553.43574515-.5099934.73967798-.961.742z" fill="#fb7b76"/><path id="Shape" d="m39.956 36.17c-.0878485.0001119-.1753083-.0116616-.26-.035-.5330514-.1429996-.8494732-.6908077-.707-1.224l5.177-19.319c.144775-.5310849.6915429-.8453019 1.2232972-.7030053.5317544.1422965.8485179.6875931.7087028 1.2200053l-5.177 19.319c-.1167435.4371762-.5125049.7414819-.965.742z" fill="#2fa8cc"/><path id="Shape" d="m36.333 49.693c-.0878485.0001119-.1753083-.0116616-.26-.035-.5330514-.1429996-.8494732-.6908077-.707-1.224l2.334-8.694c.0925318-.3451186.3621532-.6146562.7073006-.7070806.3451473-.0924244.7133845.0063059.966.259.2526156.2526942.3512312.620962.2586994.9660806l-2.332 8.693c-.1169355.4378945-.5137612.7423875-.967.742z" fill="#2fa8cc"/><path id="Shape" d="m42.129 51.246c-.087815-.0003814-.1752101-.0121461-.26-.035-.2562166-.0686632-.4746553-.2363106-.6072483-.466051-.1325931-.2297404-.1684756-.5027487-.0997517-.758949l5.176-19.318c.1430418-.5335071.6914929-.8500417 1.225-.707.533507.1430418.8500417.6914929.707 1.225l-5.176 19.314c-.1152236.4387634-.5113605.7449998-.965.746z" fill="#2fa8cc"/><path id="Shape" d="m48.6 27.1c-.0878485.0001119-.1753083-.0116616-.26-.035-.5330514-.1429996-.8494732-.6908077-.707-1.224l2.33-8.693c.0925318-.3451186.3621532-.6146562.7073006-.7070806.3451473-.0924244.7133844.0063059.966.259.2526155.2526942.3512312.620962.2586994.9660806l-2.331 8.692c-.116647.4368178-.5118768.74103-.964.742z" fill="#2fa8cc"/><path id="Shape" d="m56.09 13.61-1.3 4.83-13.52-3.62 1.29-4.83z" fill="#95a5a5"/><path id="Shape" d="m45.94 51.27c-.0525093.0790812-.116551.1498642-.19.21l-8.57 7.23c-.1260398.1040078-.294951.1398615-.4523733.0960224-.1574224-.0438392-.2834884-.1618384-.3376267-.3160224l-3.81-10.54c-.0310705-.0867276-.0479538-.1778976-.05-.27z" fill="#f9eab0"/><path id="Shape" d="m41.74 54.86-4.56 3.85c-.1260398.1040078-.294951.1398615-.4523733.0960224-.1574224-.0438392-.2834884-.1618384-.3376267-.3160224l-2.02-5.59z" fill="#35495e"/></g></g></svg>