<svg id="Layer_5" enable-background="new 0 0 64 64" height="512" viewBox="0 0 64 64" width="512" xmlns="http://www.w3.org/2000/svg"><g><g><g><path d="m19 2v12h-8-4v48h50v-4-56z" fill="#f0d0b4"/></g><g><path d="m19 2v12h-8-4z" fill="#5cd6b3"/></g><g><path d="m45 26h6v32h-6z" fill="#fcd770"/></g><g><path d="m35 30h6v28h-6z" fill="#fcd770"/></g><g><path d="m25 34h6v24h-6z" fill="#fcd770"/></g><g><path d="m15 38h6v20h-6z" fill="#fcd770"/></g></g><g><path d="m18.586 1-12.586 12.586v49.414h52v-62zm-.586 3.414v8.586h-8.586zm38 56.586h-48v-46h12v-12h36z"/><path d="m27.598 24.061-9.913 6.939h-5.685v-14h-2v42h44v-2h-2v-32h-8v32h-2v-28h-8v28h-2v-24h-8v24h-2v-20h-8v20h-2v-24h6.315l10.086-7.061 10.07-2.014 11.529-10.641v7.716h2v-11h-11v2h7.442l-10.914 10.075zm18.402 2.939h4v30h-4zm-10 4h4v26h-4zm-10 4h4v22h-4zm-10 4h4v18h-4z"/></g></g></svg>