<?xml version="1.0" encoding="UTF-8"?>
<!DOCTYPE svg PUBLIC "-//W3C//DTD SVG 1.1//EN" "http://www.w3.org/Graphics/SVG/1.1/DTD/svg11.dtd">
<svg version="1.1" xmlns="http://www.w3.org/2000/svg" xmlns:xlink="http://www.w3.org/1999/xlink" x="0" y="0" width="850" height="850" viewBox="0, 0, 850, 850">
  <g id="Layer_1">
    <g>
      <path d="M102.607,38.969 L749.816,38.969 C771.535,38.969 789.142,56.576 789.142,78.295 L789.142,773.895 C789.142,795.614 771.535,813.221 749.816,813.221 L102.607,813.221 C80.888,813.221 63.281,795.614 63.281,773.895 L63.281,78.295 C63.281,56.576 80.888,38.969 102.607,38.969 z" fill="#FFFFFF"/>
      <path d="M102.607,38.969 L749.816,38.969 C771.535,38.969 789.142,56.576 789.142,78.295 L789.142,773.895 C789.142,795.614 771.535,813.221 749.816,813.221 L102.607,813.221 C80.888,813.221 63.281,795.614 63.281,773.895 L63.281,78.295 C63.281,56.576 80.888,38.969 102.607,38.969 z" fill-opacity="0" stroke="#000000" stroke-width="54.15"/>
    </g>
    <path d="M237.164,38.969 L237.164,798.09" fill-opacity="0" stroke="#000000" stroke-width="27.075"/>
    <path d="M499.373,46.534 L499.373,805.656" fill-opacity="0" stroke="#000000" stroke-width="27.075"/>
    <path d="M68.836,172.604 L783.587,172.604" fill-opacity="0" stroke="#000000" stroke-width="27.075"/>
    <path d="M68.836,301.677 L783.587,301.677" fill-opacity="0" stroke="#000000" stroke-width="27.075"/>
    <path d="M74.391,430.75 L789.142,430.75" fill-opacity="0" stroke="#000000" stroke-width="27.075"/>
    <path d="M85.496,559.824 L800.248,559.824" fill-opacity="0" stroke="#000000" stroke-width="27.075"/>
    <path d="M85.496,688.897 L800.248,688.897" fill-opacity="0" stroke="#000000" stroke-width="27.075"/>
    <path d="M73.891,38.469 L783.087,38.469 L783.087,172.104 L73.891,172.104 L73.891,38.469 z" fill="#000000"/>
  </g>
</svg>
