<?xml version="1.0" encoding="UTF-8"?>
<!DOCTYPE svg PUBLIC "-//W3C//DTD SVG 1.1//EN" "http://www.w3.org/Graphics/SVG/1.1/DTD/svg11.dtd">
<svg version="1.1" xmlns="http://www.w3.org/2000/svg" xmlns:xlink="http://www.w3.org/1999/xlink" x="0" y="0" width="200" height="200" viewBox="0, 0, 200, 200">
  <g id="Layer_1">
    <g>
      <path d="M138.932,9.346 L138.932,28.788 C138.932,34.323 144.087,38.81 150.446,38.81 L167.972,38.81 L167.972,181.632 C167.972,187.167 162.817,191.654 156.458,191.654 L44.542,191.654 C38.183,191.654 33.028,187.167 33.028,181.632 L33.028,19.368 C33.028,13.833 38.183,9.346 44.542,9.346 L138.932,9.346 z" fill="#FFFFFF"/>
      <path d="M138.932,9.346 L138.932,28.788 C138.932,34.323 144.087,38.81 150.446,38.81 L167.972,38.81 L167.972,181.632 C167.972,187.167 162.817,191.654 156.458,191.654 L44.542,191.654 C38.183,191.654 33.028,187.167 33.028,181.632 L33.028,19.368 C33.028,13.833 38.183,9.346 44.542,9.346 L138.932,9.346 z" fill-opacity="0" stroke="#000000" stroke-width="12"/>
    </g>
    <g>
      <path d="M52.574,57.384 L148.426,57.384" fill="#DDDDDD"/>
      <path d="M52.574,57.384 L148.426,57.384" fill-opacity="0" stroke="#DDDDDD" stroke-width="12"/>
    </g>
    <g>
      <path d="M52.574,88.589 L148.426,88.589" fill="#DDDDDD"/>
      <path d="M52.574,88.589 L148.426,88.589" fill-opacity="0" stroke="#DDDDDD" stroke-width="12"/>
    </g>
    <g>
      <path d="M52.574,119.793 L148.426,119.793" fill="#DDDDDD"/>
      <path d="M52.574,119.793 L148.426,119.793" fill-opacity="0" stroke="#DDDDDD" stroke-width="12"/>
    </g>
    <g>
      <path d="M52.574,150.998 L148.426,150.998" fill="#DDDDDD"/>
      <path d="M52.574,150.998 L148.426,150.998" fill-opacity="0" stroke="#DDDDDD" stroke-width="12"/>
    </g>
    <g>
      <path d="M145.416,9.346 L167.972,32.505 L167.972,38.81 L150.446,38.81 C144.087,38.81 138.932,34.323 138.932,28.788 L138.931,9.346 L145.416,9.346 z" fill="#FFFFFF"/>
      <path d="M145.416,9.346 L167.972,32.505 L167.972,38.81 L150.446,38.81 C144.087,38.81 138.932,34.323 138.932,28.788 L138.931,9.346 L145.416,9.346 z" fill-opacity="0" stroke="#000000" stroke-width="12"/>
    </g>
  </g>
</svg>
