<?xml version="1.0" encoding="UTF-8"?>
<!DOCTYPE svg PUBLIC "-//W3C//DTD SVG 1.1//EN" "http://www.w3.org/Graphics/SVG/1.1/DTD/svg11.dtd">
<svg version="1.1" xmlns="http://www.w3.org/2000/svg" xmlns:xlink="http://www.w3.org/1999/xlink" x="0" y="0" width="92.472" height="116.154" viewBox="0, 0, 184.943, 232.308">
  <g id="Layer_1" transform="translate(-181.814, -249.65)">
    <g>
      <path d="M313.217,275.15 L313.217,294.592 C313.218,300.127 318.373,304.614 324.732,304.614 L342.258,304.614 L342.258,447.436 C342.258,452.971 337.103,457.458 330.744,457.458 L218.828,457.458 C212.469,457.458 207.314,452.971 207.314,447.436 L207.314,285.172 C207.314,279.637 212.469,275.15 218.828,275.15 L313.217,275.15 z" fill="#FFFFFF"/>
      <path d="M313.217,275.15 L313.217,294.592 C313.218,300.127 318.373,304.614 324.732,304.614 L342.258,304.614 L342.258,447.436 C342.258,452.971 337.103,457.458 330.744,457.458 L218.828,457.458 C212.469,457.458 207.314,452.971 207.314,447.436 L207.314,285.172 C207.314,279.637 212.469,275.15 218.828,275.15 L313.217,275.15 z" fill-opacity="0" stroke="#000000" stroke-width="12"/>
    </g>
    <g>
      <path d="M226.86,323.188 L322.712,323.188" fill="#DDDDDD"/>
      <path d="M226.86,323.188 L322.712,323.188" fill-opacity="0" stroke="#DDDDDD" stroke-width="12"/>
    </g>
    <g>
      <path d="M226.86,354.393 L322.712,354.393" fill="#DDDDDD"/>
      <path d="M226.86,354.393 L322.712,354.393" fill-opacity="0" stroke="#DDDDDD" stroke-width="12"/>
    </g>
    <g>
      <path d="M226.86,385.598 L322.712,385.598" fill="#DDDDDD"/>
      <path d="M226.86,385.598 L322.712,385.598" fill-opacity="0" stroke="#DDDDDD" stroke-width="12"/>
    </g>
    <g>
      <path d="M226.86,416.802 L322.712,416.802" fill="#DDDDDD"/>
      <path d="M226.86,416.802 L322.712,416.802" fill-opacity="0" stroke="#DDDDDD" stroke-width="12"/>
    </g>
    <g>
      <path d="M319.702,275.15 L342.257,298.31 L342.257,304.614 L324.731,304.614 C318.373,304.614 313.218,300.127 313.218,294.592 L313.217,275.15 L319.702,275.15 z" fill="#FFFFFF"/>
      <path d="M319.702,275.15 L342.257,298.31 L342.257,304.614 L324.731,304.614 C318.373,304.614 313.218,300.127 313.218,294.592 L313.217,275.15 L319.702,275.15 z" fill-opacity="0" stroke="#000000" stroke-width="12"/>
    </g>
  </g>
</svg>
